<svg width="239" height="439" xmlns="http://www.w3.org/2000/svg" xmlns:xlink="http://www.w3.org/1999/xlink" xml:space="preserve" overflow="hidden"><g transform="translate(-1507 32)"><g><path d="M1637.77 175.613C1633.15 175.613 1628.78 176.658 1624.65 178.748 1620.53 180.838 1616.95 183.698 1613.93 187.328 1610.9 190.958 1608.56 195.138 1606.91 199.868L1668.79 199.868C1667.25 195.138 1664.94 190.958 1661.86 187.328 1658.78 183.698 1655.18 180.838 1651.05 178.748 1646.93 176.658 1642.5 175.613 1637.77 175.613ZM1637.77 132.713C1650.97 132.713 1663.04 135.6 1673.99 141.375 1684.93 147.15 1694.17 154.96 1701.71 164.805 1709.24 174.65 1714.6 185.733 1717.79 198.053 1720.98 210.373 1721.31 223.078 1718.78 236.168L1608.73 236.168C1610.27 240.018 1612.33 243.51 1614.92 246.645 1617.5 249.78 1620.69 252.283 1624.49 254.153 1628.28 256.023 1632.71 257.013 1637.77 257.123 1642.61 257.233 1647.09 256.188 1651.22 253.988 1655.34 251.788 1658.94 248.818 1662.02 245.078L1712.51 256.793C1705.8 271.423 1695.79 283.385 1682.48 292.68 1669.17 301.975 1654.27 306.623 1637.77 306.623 1622.59 306.623 1608.76 302.718 1596.27 294.908 1583.79 287.098 1573.83 276.593 1566.41 263.393 1558.98 250.193 1555.27 235.618 1555.27 219.668 1555.27 207.678 1557.41 196.43 1561.7 185.925 1565.99 175.42 1571.91 166.18 1579.44 158.205 1586.98 150.23 1595.75 143.988 1605.76 139.478 1615.77 134.968 1626.44 132.713 1637.77 132.713Z" stroke="#000000" stroke-width="1" stroke-linecap="butt" stroke-linejoin="round" stroke-miterlimit="10" stroke-opacity="1" fill="#000000" fill-rule="evenodd" fill-opacity="1"/><text fill="#000000" fill-opacity="0" font-family="Arial,Arial_MSFontService,sans-serif" font-size="173.91" direction="ltr" writing-mode="lr-tb" x="1555.27" y="284.884">e</text></g></g></svg>