<svg width="238" height="439" xmlns="http://www.w3.org/2000/svg" xmlns:xlink="http://www.w3.org/1999/xlink" xml:space="preserve" overflow="hidden"><g transform="translate(-1691 32)"><g><path d="M1837.95 132.713C1849.83 132.713 1860.61 135.6 1870.29 141.375 1879.97 147.15 1887.7 154.878 1893.47 164.558 1899.25 174.238 1902.14 185.018 1902.14 196.898L1902.14 302.333 1852.64 302.333 1852.64 210.758C1852.64 205.588 1851.37 200.885 1848.84 196.65 1846.31 192.415 1842.96 189.06 1838.78 186.585 1834.6 184.11 1829.92 182.873 1824.75 182.873 1819.58 182.873 1814.88 184.11 1810.64 186.585 1806.41 189.06 1803.05 192.415 1800.58 196.65 1798.1 200.885 1796.87 205.588 1796.87 210.758L1796.87 302.333 1747.37 302.333 1747.2 137.333 1796.7 137.333 1796.87 147.728C1802.37 142.998 1808.64 139.313 1815.68 136.673 1822.72 134.033 1830.14 132.713 1837.95 132.713Z" stroke="#000000" stroke-width="1" stroke-linecap="butt" stroke-linejoin="round" stroke-miterlimit="10" stroke-opacity="1" fill="#000000" fill-rule="evenodd" fill-opacity="1"/><text fill="#000000" fill-opacity="0" font-family="Arial,Arial_MSFontService,sans-serif" font-size="169.62" direction="ltr" writing-mode="lr-tb" x="1747.2" y="281.13">n</text></g></g></svg>