<svg width="151" height="439" xmlns="http://www.w3.org/2000/svg" xmlns:xlink="http://www.w3.org/1999/xlink" xml:space="preserve" overflow="hidden"><g transform="translate(-220 32)"><g><path d="M273.47 137.333 322.97 137.333 322.97 302.333 273.47 302.333ZM298.385 70.6733C305.315 70.6733 311.173 73.0658 315.958 77.8508 320.743 82.6358 323.135 88.4933 323.135 95.4233 323.135 102.463 320.798 108.348 316.123 113.078 311.448 117.808 305.59 120.173 298.55 120.173 291.4 120.173 285.405 117.808 280.565 113.078 275.725 108.348 273.305 102.463 273.305 95.4233 273.305 88.4933 275.725 82.6358 280.565 77.8508 285.405 73.0658 291.345 70.6733 298.385 70.6733Z" stroke="#000000" stroke-width="1" stroke-linecap="butt" stroke-linejoin="round" stroke-miterlimit="10" stroke-opacity="1" fill="#000000" fill-rule="evenodd" fill-opacity="1"/><text fill="#000000" fill-opacity="0" font-family="Arial,Arial_MSFontService,sans-serif" font-size="231.66" direction="ltr" writing-mode="lr-tb" x="273.305" y="273.376">i</text></g></g></svg>