<svg width="357" height="439" xmlns="http://www.w3.org/2000/svg" xmlns:xlink="http://www.w3.org/1999/xlink" xml:space="preserve" overflow="hidden"><g transform="translate(-655 32)"><g><path d="M801.345 132.713C812.345 132.713 822.465 135.215 831.705 140.22 840.945 145.225 848.425 151.908 854.145 160.268 859.975 151.908 867.483 145.225 876.668 140.22 885.853 135.215 895.89 132.713 906.78 132.713 918.66 132.713 929.44 135.6 939.12 141.375 948.8 147.15 956.528 154.878 962.303 164.558 968.078 174.238 970.965 185.018 970.965 196.898L970.965 302.333 921.465 302.333 921.465 210.758C921.465 205.588 920.2 200.913 917.67 196.733 915.14 192.553 911.785 189.198 907.605 186.668 903.425 184.138 898.75 182.873 893.58 182.873 888.41 182.873 883.708 184.138 879.473 186.668 875.238 189.198 871.855 192.553 869.325 196.733 866.795 200.913 865.53 205.588 865.53 210.758L865.53 302.333 816.03 302.333 816.03 210.758C816.03 205.588 814.793 200.913 812.318 196.733 809.843 192.553 806.488 189.198 802.253 186.668 798.018 184.138 793.315 182.873 788.145 182.873 783.085 182.873 778.438 184.138 774.203 186.668 769.968 189.198 766.585 192.553 764.055 196.733 761.525 200.913 760.26 205.588 760.26 210.758L760.26 302.333 710.76 302.333 710.76 137.333 760.26 137.333 760.26 147.728C765.76 142.998 772.03 139.313 779.07 136.673 786.11 134.033 793.535 132.713 801.345 132.713Z" stroke="#000000" stroke-width="1" stroke-linecap="butt" stroke-linejoin="round" stroke-miterlimit="10" stroke-opacity="1" fill="#000000" fill-rule="evenodd" fill-opacity="1"/><text fill="#000000" fill-opacity="0" font-family="Arial,Arial_MSFontService,sans-serif" font-size="169.62" direction="ltr" writing-mode="lr-tb" x="710.76" y="281.13">m</text></g></g></svg>