<svg width="271" height="439" xmlns="http://www.w3.org/2000/svg" xmlns:xlink="http://www.w3.org/1999/xlink" xml:space="preserve" overflow="hidden"><g transform="translate(-1301 32)"><g><path d="M1432.4 180.563C1425.58 180.563 1419.39 182.323 1413.84 185.843 1408.28 189.363 1403.88 194.093 1400.64 200.033 1397.39 205.973 1395.77 212.573 1395.77 219.833 1395.77 227.093 1397.42 233.693 1400.72 239.633 1404.02 245.573 1408.45 250.303 1414 253.823 1419.56 257.343 1425.69 259.103 1432.4 259.103 1439.22 259.103 1445.43 257.343 1451.04 253.823 1456.65 250.303 1461.11 245.573 1464.41 239.633 1467.71 233.693 1469.36 227.093 1469.36 219.833 1469.36 212.573 1467.71 205.973 1464.41 200.033 1461.11 194.093 1456.65 189.363 1451.04 185.843 1445.43 182.323 1439.22 180.563 1432.4 180.563ZM1473.65 54.8326 1523.15 54.8326 1523.15 302.333 1473.65 302.333 1473.65 287.153C1468.59 292.873 1462.57 297.548 1455.58 301.178 1448.6 304.808 1440.65 306.623 1431.74 306.623 1419.75 306.623 1408.53 304.368 1398.08 299.858 1387.63 295.348 1378.42 289.105 1370.44 281.13 1362.47 273.155 1356.22 263.943 1351.71 253.493 1347.2 243.043 1344.95 231.823 1344.95 219.833 1344.95 207.843 1347.2 196.623 1351.71 186.173 1356.22 175.723 1362.47 166.51 1370.44 158.535 1378.42 150.56 1387.63 144.318 1398.08 139.808 1408.53 135.298 1419.75 133.043 1431.74 133.043 1440.65 133.043 1448.6 134.83 1455.58 138.405 1462.57 141.98 1468.59 146.683 1473.65 152.513Z" stroke="#000000" stroke-width="1" stroke-linecap="butt" stroke-linejoin="round" stroke-miterlimit="10" stroke-opacity="1" fill="#000000" fill-rule="evenodd" fill-opacity="1"/><text fill="#000000" fill-opacity="0" font-family="Arial,Arial_MSFontService,sans-serif" font-size="251.79" direction="ltr" writing-mode="lr-tb" x="1344.95" y="275.149">d</text></g></g></svg>